# xmcd
#
# Track frame offsets:
#       150
#       13868
#       33388
#       46205
#       59715
#       74386
#       85327
#       95566
#       106798
#       111360
#       125382
#       137883
#       150418
#       165387
#       175734
#       187586
#       199117
#       207577
#       216996
#       226718
#
# Disc length: 3136 seconds
#
# Revision: 0
# Processed by: cddbd v1.4PL0 Copyright (c) Steve Scherf et al.
# Submitted via: WhereIsIt 3.26
#
DISCID=130c3e14
DTITLE=Various Country - That's Country CD-6
DYEAR=1900
DGENRE=
TTITLE0=porter wagoner - keep on loving you
TTITLE1=ferlin husky - little joe
TTITLE2=don williams - I'm getting good at missing you
TTITLE3=anne murray - david's song
TTITLE4=ed bruce and lynn anderson - texas when I die
TTITLE5=don williams - It must be love
TTITLE6=patsy cline - waling dream
TTITLE7=frankie laine - answer me
TTITLE8=bob wills - bob's schottische
TTITLE9=kenny rogers - sunshine
TTITLE10=ronnie McDowell - older women make good lovers
TTITLE11=gail davies - you turn me on, I'm a radio
TTITLE12=tanya tucker - what's your mama's name
TTITLE13=barbara mandrell - this time I almost made it
TTITLE14=lynn anderson - where's the fire
TTITLE15=hoyt axton - no no song
TTITLE16=jim reeves - the wind up doll
TTITLE17=tex ritter - froggy went a courtin'
TTITLE18=carl perkins - this old house
TTITLE19=waylon jennings - love's gonna live here
EXTD=
EXTT0=
EXTT1=
EXTT2=
EXTT3=
EXTT4=
EXTT5=
EXTT6=
EXTT7=
EXTT8=
EXTT9=
EXTT10=
EXTT11=
EXTT12=
EXTT13=
EXTT14=
EXTT15=
EXTT16=
EXTT17=
EXTT18=
EXTT19=
PLAYORDER=
